/* XPM */
static char * NeMeSun36_xpm[] = {
"36 36 347 2",
"  	c None",
". 	c #2C2C2C",
"+ 	c #4E4E4E",
"@ 	c #737373",
"# 	c #070707",
"$ 	c #373737",
"% 	c #5B5B5B",
"& 	c #606060",
"* 	c #000000",
"= 	c #1C1C1C",
"- 	c #4B4B4B",
"; 	c #5C5C5C",
"> 	c #5D5D5D",
", 	c #232323",
"' 	c #515151",
") 	c #717171",
"! 	c #161616",
"~ 	c #030303",
"{ 	c #454542",
"] 	c #494949",
"^ 	c #090909",
"/ 	c #383838",
"( 	c #4C4C4C",
"_ 	c #424242",
": 	c #6C6C6C",
"< 	c #010101",
"[ 	c #181818",
"} 	c #505046",
"| 	c #545454",
"1 	c #5A5A5A",
"2 	c #1B1B1B",
"3 	c #363636",
"4 	c #343434",
"5 	c #111111",
"6 	c #414141",
"7 	c #676767",
"8 	c #757575",
"9 	c #171717",
"0 	c #020202",
"a 	c #424234",
"b 	c #494944",
"c 	c #121212",
"d 	c #0D0D0D",
"e 	c #4A4A48",
"f 	c #242424",
"g 	c #1F1F1F",
"h 	c #4D4D4C",
"i 	c #727272",
"j 	c #040404",
"k 	c #5A5A3F",
"l 	c #0C0C0C",
"m 	c #4E4E45",
"n 	c #333333",
"o 	c #292929",
"p 	c #101010",
"q 	c #0B0B0B",
"r 	c #343431",
"s 	c #505045",
"t 	c #4E4E46",
"u 	c #525252",
"v 	c #6B6B6B",
"w 	c #1E1E1E",
"x 	c #3C3C2A",
"y 	c #51513E",
"z 	c #595959",
"A 	c #1A1A1A",
"B 	c #4F4F40",
"C 	c #323232",
"D 	c #2F2F2F",
"E 	c #060606",
"F 	c #313127",
"G 	c #57573D",
"H 	c #56563D",
"I 	c #4E4E4D",
"J 	c #626262",
"K 	c #747474",
"L 	c #6D6D6D",
"M 	c #141414",
"N 	c #0E0E0E",
"O 	c #6B6B32",
"P 	c #484848",
"Q 	c #272727",
"R 	c #4D4D38",
"S 	c #303030",
"T 	c #1D1D1D",
"U 	c #080808",
"V 	c #2C2C23",
"W 	c #67672F",
"X 	c #66662E",
"Y 	c #4F4F49",
"Z 	c #585858",
"` 	c #5E5E5E",
" .	c #212121",
"..	c #6D6D23",
"+.	c #636332",
"@.	c #535353",
"#.	c #33332D",
"$.	c #4B4B36",
"%.	c #2E2E2E",
"&.	c #131313",
"*.	c #80801A",
"=.	c #959507",
"-.	c #7E7E23",
";.	c #676732",
">.	c #656530",
",.	c #94940C",
"'.	c #93930B",
").	c #4C4C44",
"!.	c #45452C",
"~.	c #46463A",
"{.	c #2B2B2B",
"].	c #282828",
"^.	c #404040",
"/.	c #4A4A4A",
"(.	c #474747",
"_.	c #3F3F3F",
":.	c #333332",
"<.	c #8B8B18",
"[.	c #A4A400",
"}.	c #A7A700",
"|.	c #A9A900",
"1.	c #A3A300",
"2.	c #88881C",
"3.	c #4D4D4B",
"4.	c #353535",
"5.	c #696926",
"6.	c #3F3F3D",
"7.	c #3A3A3A",
"8.	c #3C3C3C",
"9.	c #202020",
"0.	c #464646",
"a.	c #4A4A42",
"b.	c #626232",
"c.	c #929217",
"d.	c #AAAA00",
"e.	c #AFAF00",
"f.	c #B3B300",
"g.	c #B5B500",
"h.	c #939315",
"i.	c #7A7A24",
"j.	c #8D8D0C",
"k.	c #3B3B3B",
"l.	c #222222",
"m.	c #383835",
"n.	c #474743",
"o.	c #151515",
"p.	c #444444",
"q.	c #434343",
"r.	c #4C4C3F",
"s.	c #595937",
"t.	c #878718",
"u.	c #9A9A03",
"v.	c #A5A500",
"w.	c #ADAD00",
"x.	c #BBBB00",
"y.	c #BFBF00",
"z.	c #C1C100",
"A.	c #BEBE00",
"B.	c #BABA00",
"C.	c #B4B400",
"D.	c #ACAC00",
"E.	c #929212",
"F.	c #363633",
"G.	c #4F4F41",
"H.	c #050505",
"I.	c #2A2A2A",
"J.	c #4B4B49",
"K.	c #4F4F48",
"L.	c #4F4F42",
"M.	c #474733",
"N.	c #353528",
"O.	c #212120",
"P.	c #38382A",
"Q.	c #9E9E08",
"R.	c #B6B600",
"S.	c #C5C500",
"T.	c #CBCB00",
"U.	c #CDCD00",
"V.	c #CACA00",
"W.	c #BDBD00",
"X.	c #ABAB00",
"Y.	c #969615",
"Z.	c #262626",
"`.	c #353532",
" +	c #57573C",
".+	c #0A0A0A",
"++	c #191919",
"@+	c #252525",
"#+	c #A0A00E",
"$+	c #C7C700",
"%+	c #CFCF00",
"&+	c #D6D600",
"*+	c #D9D900",
"=+	c #D5D500",
"-+	c #CECE00",
";+	c #C6C600",
">+	c #BCBC00",
",+	c #B2B200",
"'+	c #A2A20A",
")+	c #3D3D3D",
"!+	c #353534",
"~+	c #5F5F38",
"{+	c #262625",
"]+	c #5E5E2F",
"^+	c #B9B900",
"/+	c #C4C400",
"(+	c #D8D800",
"_+	c #E0E000",
":+	c #E5E500",
"<+	c #DFDF00",
"[+	c #D7D700",
"}+	c #C2C200",
"|+	c #B7B700",
"1+	c #75752C",
"2+	c #575738",
"3+	c #6F6F2D",
"4+	c #2E2E29",
"5+	c #444434",
"6+	c #9E9E0A",
"7+	c #B0B000",
"8+	c #C8C800",
"9+	c #D4D400",
"0+	c #E9E900",
"a+	c #F1F100",
"b+	c #F0F000",
"c+	c #E8E800",
"d+	c #DDDD00",
"e+	c #D2D200",
"f+	c #8F8F0E",
"g+	c #37372D",
"h+	c #3B3B33",
"i+	c #8E8E11",
"j+	c #B1B100",
"k+	c #E2E200",
"l+	c #EEEE00",
"m+	c #F9F900",
"n+	c #F8F800",
"o+	c #ECEC00",
"p+	c #9F9F08",
"q+	c #44442F",
"r+	c #343432",
"s+	c #70702D",
"t+	c #4C4C27",
"u+	c #6C6C25",
"v+	c #EBEB00",
"w+	c #F3F300",
"x+	c #F2F200",
"y+	c #DEDE00",
"z+	c #D3D300",
"A+	c #65652D",
"B+	c #505050",
"C+	c #6F6F6F",
"D+	c #606038",
"E+	c #292926",
"F+	c #1B1B1A",
"G+	c #A5A50D",
"H+	c #D0D000",
"I+	c #DADA00",
"J+	c #E7E700",
"K+	c #E1E100",
"L+	c #C3C300",
"M+	c #B8B800",
"N+	c #A6A609",
"O+	c #383837",
"P+	c #454545",
"Q+	c #4D4D4D",
"R+	c #58583D",
"S+	c #2D2D29",
"T+	c #9A9A1A",
"U+	c #C9C900",
"V+	c #D1D100",
"W+	c #DCDC00",
"X+	c #DBDB00",
"Y+	c #A5A506",
"Z+	c #545444",
"`+	c #464645",
" @	c #52523E",
".@	c #525244",
"+@	c #393937",
"@@	c #505042",
"#@	c #30302B",
"$@	c #0F0F0F",
"%@	c #979717",
"&@	c #AEAE00",
"*@	c #C0C000",
"=@	c #CCCC00",
"-@	c #A2A202",
";@	c #8D8D16",
">@	c #6D6D30",
",@	c #52522E",
"'@	c #383828",
")@	c #1E1E1D",
"!@	c #474744",
"~@	c #32322E",
"{@	c #959510",
"]@	c #818120",
"^@	c #9B9B15",
"/@	c #9C9C14",
"(@	c #5E5E27",
"_@	c #303026",
":@	c #737328",
"<@	c #181816",
"[@	c #8B8B1C",
"}@	c #999915",
"|@	c #34342D",
"1@	c #535331",
"2@	c #26261F",
"3@	c #9E9E0D",
"4@	c #A3A30A",
"5@	c #656526",
"6@	c #5F5F24",
"7@	c #838320",
"8@	c #A1A108",
"9@	c #8D8D19",
"0@	c #666666",
"a@	c #3D3D2B",
"b@	c #464639",
"c@	c #595928",
"d@	c #7A7A22",
"e@	c #616125",
"f@	c #707032",
"g@	c #515146",
"h@	c #575757",
"i@	c #797979",
"j@	c #43432C",
"k@	c #727232",
"l@	c #161615",
"m@	c #45452B",
"n@	c #5C5C40",
"o@	c #707070",
"p@	c #787878",
"q@	c #484837",
"r@	c #3A3A28",
"s@	c #54543E",
"t@	c #303027",
"u@	c #4F4F4B",
"v@	c #4C4C41",
"w@	c #313131",
"x@	c #59593B",
"y@	c #3E3E3E",
"z@	c #484845",
"A@	c #22221E",
"B@	c #535341",
"C@	c #454539",
"D@	c #474746",
"E@	c #4E4E4B",
"F@	c #2D2D2D",
"                            . + @                                       ",
"                            # $ % &                                     ",
"                            * = - ; >           , ' )                   ",
"                            ! ~ { ] >           ^ / ( _                 ",
"            ] :               < [ } | 1       2 ^ _ 3 4                 ",
"          5 6 7 @ 8           9 0 a b ;       c d e 4 f                 ",
"          < g - h ; i 8 8       j c k ( %     l c m n o                 ",
"          p * q r s t u v 8 8   w < x y z >   l A B C D                 ",
"            9 E * ^ F G H I J K L M N O P ;   * Q R S                   ",
"                T U * # V W X Y Z `  ...+.@.' < #.$.%.        %.@.@     ",
"                    o q ~ &.*.=.-.;.>.,.'.).J N !.~.{.      = ].^.| P   ",
"                /.] P (._.:.<.[.}.|.|.}.1.2.3.4.5.6.].    T f 7.8.= 9.  ",
"        (.] (././.0._ a.b.c.d.e.f.g.g.f.e.|.h.i.j.k.,   ! l.m.n.o.U     ",
"  4.p.] P q.q.r.s.O t.u.v.w.g.x.y.z.z.A.B.C.D.[.E.$ Q A  .F.G.A H.      ",
"c I._ J.K.L.M.N.O.M P.Q.w.R.A.S.T.U.U.V.S.W.g.X.Y./ Z.g `. +9.H.        ",
"5 .+Q ++q H.0 * * E @+#+f.A.$+%+&+*+*+=+-+;+>+,+'+p.)+!+~+{+E w         ",
"  ~ * j N p =   M  .]+w.^+/+-+(+_+:+:+<+[+U.}+|+D.1+2+3+4+U 9           ",
"              ! l.5+6+7+>+8+9+<+0+a+b+c+d+e+;+B.e.1.f+g+q 5             ",
"            [ g h+i+v.j+W.V.&+k+l+m+n+o+_+9+8+>+7+p+q+N .+              ",
"          g = r+s+t+u+j+W.8+9+_+v+w+x+0+y+z+$+x.e.A+! ^     /.B+( u C+  ",
"          [ D D+E+j F+G+^+S.H+I+k+J+J+K+*+-+L+M+N+O+D P+Q+Q+/.P+P+] /.q.",
"        o.{.R+S+U * 5 T+g.y.U+V+(+W+X+[+H+$+A.f.Y+Z+P `+r. @.@a.+@g 5 [ ",
"      o.Q @@#@^ $@5 ! %@&@M+*@$+U.H+%+=@$+y.R.w.-@;@>@,@'@)@l j < < $@  ",
"    &.f !@~@.+o.  ~ 9.{@]@^@|+W.z.L+L+z.>+R./@(@_@! U ~ * 0 l 9         ",
"  M $@8.4 q q     * o :@++<@[@,+g.|+|+g.j+}@E+j * E $@&.                ",
"  M < M ^ E       < |@1@f * 2@3@4@5@6@7@8@9@(.0@0@K                     ",
"    5 0 &.        0 a@b@o q ~ c@d@o j E 2@e@f@g@h@i i@K                 ",
"                  ~ j@)+f   ~ c k@P+P+$@* 0 l@m@n@s | o@p@)             ",
"                  H.q@3 l.  M < r@s@h@`   c ~ < q t@L.u@@.) 7           ",
"                c # v@w@].    # U x@P z       9 U * j T y@y@8.          ",
"                ++^ z@w@,       * A@B@| z           $@* < E .+          ",
"                ^ .+0.%.9.      p ~ C@D@Z               ++N             ",
"                N j , T           0 p E@' @.                            ",
"                  # * q           2 * F@0.(.                            ",
"                                    l ~ o.o.                            ",
"                                      d .+g                             "};
